<?xml version="1.0" encoding="UTF-8"?>
<svg id="Layer_2" data-name="Layer 2" xmlns="http://www.w3.org/2000/svg" viewBox="0 0 1275.59 1275.59">
  <defs>
    <style>
      .cls-1 {
        fill: #fff;
      }
    </style>
  </defs>
  <g id="Layer_1-2" data-name="Layer 1">
    <rect class="cls-1" width="1275.59" height="1275.59"/>
    <g>
      <path d="m1.09,0h1273.41c.6,0,1.09.52,1.09,1.17v1273.25c0,.65-.49,1.17-1.09,1.17H1.09C.49,1275.59,0,1275.07,0,1274.42,0,850,0,425.59,0,1.17,0,.52.49,0,1.09,0Zm700.74,226.67c-1.28.14-1.65.13-2.63.24-4,.47-17.16,2.49-19.34,2.8-2.12.31-1.48-3.35-1.06-4.18,1.32-2.56,3.09-6.07,3.82-7.32,15.34-26.21,31.24-52.07,45.87-78.73,14.21-25.88,27.25-52.5,40.53-78.96,4.05-8.06,5.35-17.03,4.91-26.23-.54-11.26-5.59-19.19-14.94-21.69-4.01-1.07-8.66-1.22-12.67-.18-30.58,7.89-59.78,20.44-87.97,34.82-53.03,27.05-103.99,58.42-154.19,91.07-106.03,68.95-211.86,138.24-317.77,207.4-11.89,7.76-24.4,13.96-37.75,18.33-2.13.7-5.2,4.1-4.94,5.74.38,2.45,3.03,5.74,5.24,6.31,3.31.85,7.37.49,10.59-.84,11.2-4.62,22.65-8.92,33.16-15.02,84.01-48.76,164.55-103.83,246.47-156.41,64.66-41.5,129.21-83.12,195.71-121.24,31.87-18.27,65.29-32.07,98.81-45.92,3.7-1.53,7.5-2.77,11.37-3.68,10.08-2.36,12.06-.93,8.95,9.3-3.04,9.99-7.04,19.9-12.11,28.88-30.26,53.52-60.95,106.76-91.57,160.05-.87,1.51-2.4,3.08-3.92,3.58-29.18,9.64-55.97,25.04-83,39.77-60.77,33.11-118.11,71.88-170.37,119.06-22.25,20.09-43.72,40.99-61.43,65.87-9.43,13.25-17.41,27.44-21.7,43.75-4.86,18.47-1.68,29.5,12.46,40.89,13.33,10.74,28.85,14.96,45.04,15.25,24.05.43,48.12-.23,72.18-.67,9.62-.17,19.23-.88,29.35-1.41.8-.04,1.37.83,1.06,1.62-.47,1.21-.85,2.21-1.31,3.17-5.66,11.87-11.29,23.76-17.09,35.56-1.15,2.33-2.75,4.36-4.7,5.97-12.23,10.07-24.59,19.97-36.88,29.96-105.09,85.37-205.35,176.51-293.84,281.82-33.02,39.3-66.16,78.46-93.69,122.54-4.07,6.51-7.54,13.85-9.57,21.33-4.56,16.86,3.08,28.08,19.32,29.94,13.17,1.51,26.07-.45,38.64-4.36,34.87-10.84,67.46-27.57,99.25-45.99,36.6-21.21,71.15-46.01,105.34-71.38,6.58-4.88,13.24-9.61,20.51-14.84.88-.63,2.01.32,1.63,1.39-2.85,8.05-5.44,15.38-8.05,22.71-25.52,71.66-45.94,144.95-60.43,220.08-3.57,18.51-5.98,37.28-8.77,55.95-.86,5.77,1.83,9.86,6.46,10.66,4.59.8,8.14-2.3,9.21-8.05.22-1.21.32-2.45.53-3.67,3.7-22.1,6.44-44.43,11.28-66.24,19.36-87.33,46.46-171.95,79.53-254.37.94-2.35,2.43-4.41,4.33-5.96,8.25-6.73,16.63-13.27,25.02-19.81,59.63-46.5,118.71-93.75,174.05-146.14,30.06-28.46,59.65-57.43,86.01-89.93,13.03-16.07,24.99-32.95,31.36-53.56,6.67-21.55.6-46.18-15.99-57.2-9.49-6.31-20.57-10.27-31.37-13.79-9.05-2.96-18.6-4.17-28.23-6.02-.92-.18-1.22-1.45-.48-2.07.2-.17.4-.33.61-.48,32.1-23.27,63.79-47.24,96.41-69.66,79.6-54.71,161.83-104.58,245.9-150.99,110.21-60.85,221.98-117.8,340.03-159.37,1.25-.44,2.53-.91,3.63-1.66,4.71-3.23,5.2-11.02.33-13.72-2.64-1.46-6.78-1.46-9.71-.41-136.23,48.43-266.57,111.54-393.7,182.51-111.34,62.16-218.23,132.13-319.91,211.15-1.31,1.01-2.83,2.37-4.27,2.41-8.1.21-16.21.12-24.68.11-.79,0-1.32-.87-1-1.64.26-.63.48-1.16.74-1.66,12.05-23.36,23.44-47.16,36.31-70,39.93-70.82,80.43-141.26,120.73-211.84.36-.63,2.21-1.46,3.77-2.04,3.95-1.47,26.46-6.96,35.02-8.4,32.98-5.54,91.86-17.33,91.81-18.12-.04-.54-.06-1.42-.49-2.21-2.42-4.46-9.79-3.2-21.97-1.82-16.38,1.85-3.63.45-69.82,7.88Z"/>
      <path d="m22.06,1071.62c4.39.38,7.38,1.16,10.24.78,9.39-1.25,19.03-1.84,28.05-4.64,33.42-10.38,64.85-26.16,95.39-43.73,52.36-30.12,100.92-66.66,148.99-103.92,2.65-2.05,5.04-5.24,6.33-8.46,34.63-86.24,69.48-172.37,109.97-255.72.45-.93.66-2,1.41-4.37-16.01,13.19-30.94,25.44-45.82,37.77-115.3,95.45-222.35,200.3-316.16,320.08-11.85,15.13-22.29,31.57-32.96,47.71-2.54,3.85-3.42,8.96-5.42,14.5ZM632.16,257.53c-.22-.3-.44-.59-.66-.89-1.5.62-3.05,1.13-4.5,1.86-55.28,27.77-109.14,58.3-159.59,95.31-38.7,28.38-75.89,58.85-108.16,95.54-9.42,10.72-17.95,22.57-25.49,34.88-5.01,8.17-7.87,17.95-11.07,27.26-2.13,6.22.33,11.14,5.3,15.26,11.29,9.36,24.46,12.58,38.05,12.37,36.63-.57,73.25-2.01,109.87-3.36,1.68-.06,3.88-2.33,4.84-4.17,14.32-27.61,27.7-55.83,42.83-82.92,34.73-62.18,70.3-123.82,105.53-185.69,1.03-1.81,2.03-3.63,3.05-5.45Zm-291.13,633.3c1.53-1.01,2.11-1.34,2.64-1.76,63.17-50.48,125.69-101.83,183.69-159.17,27.68-27.36,55.08-55.01,79.12-86.2,8.52-11.05,16.21-22.71,20.62-36.43,5.4-16.77-.32-30.01-15.34-36.9-21.05-9.65-43.41-12.01-65.84-14-1.88-.17-4.18,1.02-5.81,2.28-25.47,19.83-50.87,39.75-76.23,59.74-1.67,1.32-3.22,3.15-4.2,5.11-43.06,85.9-81.62,174.11-117.43,263.72-.32.79-.56,1.62-1.23,3.6Zm146.79-322.59c5.34-4.17,10.67-8.35,16.7-13.06-12.18-1.1-12.73-.69-16.7,13.06Z"/>
      <path d="m22.06,1071.62c2.01-5.54,2.88-10.65,5.42-14.5,10.68-16.15,21.11-32.58,32.96-47.71,93.81-119.79,200.86-224.63,316.16-320.08,14.88-12.32,29.82-24.58,45.82-37.77-.76,2.37-.96,3.44-1.41,4.37-40.49,83.35-75.33,169.48-109.97,255.72-1.29,3.22-3.68,6.41-6.33,8.46-48.07,37.26-96.62,73.8-148.99,103.92-30.54,17.57-61.96,33.35-95.39,43.73-9.02,2.8-18.65,3.39-28.05,4.64-2.86.38-5.85-.41-10.24-.78Z"/>
      <path d="m631.57,258.59c-.82,1.47-1.63,2.94-2.46,4.4-35.23,61.86-70.8,123.51-105.53,185.69-15.13,27.09-28.51,55.31-42.83,82.92-.95,1.84-3.15,4.1-4.84,4.17-36.62,1.36-73.24,2.79-109.87,3.36-13.59.21-26.76-3.01-38.05-12.37-4.97-4.12-7.43-9.04-5.3-15.26,3.2-9.31,6.06-19.09,11.07-27.26,7.54-12.31,16.07-24.16,25.49-34.88,32.27-36.69,69.46-67.16,108.16-95.54,50.45-37,104.31-67.54,159.59-95.31,1.1-.55,2.26-.98,3.41-1.43.86-.33,1.63.67,1.16,1.51Z"/>
      <path d="m341.03,890.83c.68-1.98.92-2.81,1.23-3.6,35.81-89.61,74.36-177.82,117.43-263.72.98-1.95,2.53-3.79,4.2-5.11,25.36-19.99,50.76-39.91,76.23-59.74,1.63-1.27,3.93-2.45,5.81-2.28,22.43,1.99,44.79,4.35,65.84,14,15.02,6.89,20.74,20.13,15.34,36.9-4.42,13.71-12.1,25.38-20.62,36.43-24.04,31.19-51.44,58.83-79.12,86.2-58.01,57.33-120.52,108.68-183.69,159.17-.53.42-1.11.75-2.64,1.76Z"/>
      <path d="m487.82,568.24c3.97-13.75,4.52-14.16,16.7-13.06-6.03,4.71-11.36,8.89-16.7,13.06Z"/>
    </g>
  </g>
</svg>